<svg width="182" height="105" fill="none" xmlns="http://www.w3.org/2000/svg"><mask id="a" maskUnits="userSpaceOnUse" x="0" y="0" width="182" height="105"><path fill-rule="evenodd" clip-rule="evenodd" d="M0 0h181.97v104.8H0V0z" fill="#fff"/></mask><g mask="url(#a)" fill="#000"><path d="M7.029 100.375H5.777L2.01 94.653v5.722H.758v-7.743H2.01l3.767 5.744v-5.744h1.252v7.743zm7.135-3.317c0 .205-.015.385-.044.538H9.463c.022.623.194 1.084.516 1.384.323.3.722.45 1.198.45.417 0 .768-.106 1.054-.318.293-.212.472-.494.538-.846h1.34c-.08.425-.25.802-.505 1.131-.257.33-.59.59-1 .78a3.33 3.33 0 01-1.373.275c-.585 0-1.105-.125-1.56-.374a2.663 2.663 0 01-1.053-1.076c-.257-.468-.385-1.021-.385-1.658 0-.63.128-1.179.385-1.648a2.666 2.666 0 011.054-1.076c.454-.249.974-.373 1.56-.373.592 0 1.109.124 1.548.373a2.47 2.47 0 011.021 1.01c.242.425.363.901.363 1.428zm-1.263-.033c.014-.395-.055-.725-.209-.988a1.338 1.338 0 00-.615-.593 1.821 1.821 0 00-.846-.198c-.49 0-.9.15-1.23.45-.33.3-.508.743-.538 1.33h3.438zm10.947-2.701l-1.68 6.051h-1.385l-1.493-4.679-1.516 4.679h-1.373l-1.68-6.051h1.263l1.153 4.898 1.516-4.898h1.318l1.537 4.898 1.153-4.898h1.186zm9.273-1.703l-2.581 4.931v2.823h-1.263v-2.823l-2.592-4.93h1.45l1.779 3.59 1.779-3.59h1.428zm3.699 1.626c.586 0 1.113.124 1.581.373a2.68 2.68 0 011.099 1.076c.263.469.395 1.018.395 1.648 0 .637-.132 1.19-.395 1.658a2.68 2.68 0 01-1.099 1.076 3.317 3.317 0 01-1.581.374 3.317 3.317 0 01-1.581-.374 2.768 2.768 0 01-1.099-1.076c-.263-.476-.395-1.029-.395-1.658 0-.63.132-1.179.395-1.648a2.77 2.77 0 011.099-1.076 3.318 3.318 0 011.581-.373zm0 1.087a1.84 1.84 0 00-.89.22c-.27.146-.49.373-.658.68-.162.3-.242.67-.242 1.11 0 .446.08.82.242 1.12.168.3.388.523.659.67.27.146.567.22.889.22.322 0 .619-.074.89-.22.27-.147.486-.37.648-.67.168-.3.252-.674.252-1.12 0-.44-.084-.81-.252-1.11a1.58 1.58 0 00-.648-.68 1.841 1.841 0 00-.89-.22zm5.527.176c.205-.396.498-.707.879-.934.38-.234.82-.351 1.318-.351v1.362h-.374c-.549 0-.992.135-1.328.406-.33.264-.495.703-.495 1.318v3.064h-1.252v-6.051h1.252v1.186zm6.558 4.865l-2.175-2.69v2.69h-1.252v-8.127h1.252v4.656l2.153-2.58h1.505l-2.636 3.009 2.701 3.042h-1.548zm8.392-7.83c.951 0 1.742.241 2.372.724.63.483 1.054 1.139 1.274 1.966h-1.33a2.318 2.318 0 00-.878-1.11c-.395-.277-.882-.416-1.46-.416-.462 0-.875.113-1.241.34a2.386 2.386 0 00-.857.977c-.205.418-.308.908-.308 1.472 0 .556.103 1.047.308 1.472a2.4 2.4 0 00.857.966c.366.227.78.34 1.24.34.579 0 1.066-.135 1.461-.406.403-.278.696-.648.879-1.109h1.329c-.22.827-.645 1.483-1.274 1.966-.63.476-1.42.714-2.372.714-.733 0-1.38-.165-1.944-.494a3.43 3.43 0 01-1.307-1.395c-.308-.6-.462-1.285-.462-2.054 0-.769.154-1.45.462-2.043.307-.6.743-1.069 1.307-1.405.563-.337 1.211-.506 1.944-.506zm4.716.021c0-.212.073-.388.22-.527.146-.139.34-.208.581-.208.242 0 .436.07.583.208a.68.68 0 01.23.527.647.647 0 01-.23.517c-.147.131-.341.197-.583.197-.241 0-.435-.066-.582-.197a.662.662 0 01-.22-.517zm1.427 1.758v6.051h-1.252v-6.051h1.252zm4.554 4.964v1.087h-.769c-.644 0-1.134-.154-1.471-.461-.33-.315-.494-.835-.494-1.56V95.39h-.868v-1.065h.868V92.82h1.262v1.505h1.461v1.065h-1.46v2.987c0 .344.062.582.186.714.132.132.359.198.681.198h.604zm1.883-4.964l1.813 4.447 1.68-4.447h1.395l-3.658 8.928h-1.394l1.307-3.02-2.548-5.908h1.405z"/><path fill-rule="evenodd" clip-rule="evenodd" d="M14.08 26.06v-.6c3.6 0 7.665-.067 7.665-6.532h.6v13.663h-.6c0-6.465-4.133-6.531-7.665-6.531zM29.076 2.533v11.33h-.6c0-10.264-4.865-10.73-14.396-10.73v-.6h14.996zM7.882 42.455c0 5.532 1.333 6.399 4.399 6.399v.6H.55v-.6c2.799 0 3.266-1.333 3.266-5.866V7.531c0-4.132-.334-4.399-3.267-4.399v-.6h7.332v39.923zm27.593-30.192c-1.266 0-2.2-1-2.2-2.2 0-1.332.934-2.332 2.2-2.332 1.2 0 2.266 1 2.266 2.333 0 1.2-1.066 2.2-2.266 2.2zm2.333 32.925c0 3.665.333 3.066 2.732 3.665v.6h-8.73v-.6c2.532-.733 2.665-.266 2.665-3.665V22.994c0-2.333-.466-3.266-3.266-3.266v-.533l6.599-1.133v27.126zM62 4.465a2.501 2.501 0 01-3.132 1.666C57.535 5.731 56.735 4.4 57.202 3c.2-.666.667-1.2 1.133-1.4.2-.133-.2-.733-.933-1V0c1.932.268 3.466 1.134 3.932 1.667.6.667.933 1.866.667 2.8zM53.27.333v.6c-1.867 1.733-2.8 6.798-2.8 17.728h7.799l-.134.6H50.47v26.326c0 3.333 1.333 3.066 3.733 3.333v.533h-9.664v-.533c2.532-.333 2.599-.267 2.599-3.333V19.261h-4.265l-.067-.6h4.332c0-11.596 1.333-16.995 6.132-18.328zm22.527 44.588l.4.134c-.533 2.732-2.533 4.998-5.798 4.998-4.4 0-7.199-2.133-7.199-10.197V19.26h-3.399l-.067-.6H63.2V8.599l3.333-.4v10.464h7.865l-.134.6h-7.731v20.394c0 6.865 2.199 8.598 5.198 8.598 1.933 0 3.6-1.533 4.066-3.333zm30.526 3.999v.533h-8.664v-.533c2.532-.733 2.665-.333 2.665-3.732v-15.73c0-5.864-2.799-9.597-8.264-9.597-2.133 0-3.866 1-5.199 2.2l-.533-.667c1.866-2 4.465-3.332 7.265-3.332 5.598 0 9.997 3.132 9.997 11.13v15.996c0 3.665.4 3.132 2.733 3.732zm-19.728-.067v.6h-8.732v-.6c2.533-.733 2.667-.266 2.667-3.665V5.798c0-2.332-.534-3.265-3.333-3.265v-.6L83.862.8v44.388c0 3.665.333 3.066 2.733 3.665zM42.34 86.262v.6H31.008v-.6c2 0 4.132-.466 1-7.931l-2.6-6.798H10.682c-3.666 10.664-5.332 14.73 2.666 14.73v.6H.017v-.6c3.266 0 4.932-1.134 9.731-15.33H29.21L19.145 44.606l1.667-4.665h.266l15.93 40.323c2.132 5.332 3.332 5.865 5.331 5.998zM67.6 56.07v.534c-3.533 0-5.065 0-7.865 8.064l-.533-.4c.4-1.133 2.333-7.664-4.332-7.664v-.534H67.6zm-24.927 4.8l10.33 22.594-1.399 3.999h-.333c-11.797-25.593-12.93-27.66-12.93-27.66-1.666-3.132-3.666-3.065-4.732-3.198v-.534h11.93v.534c-5.132 0-2.866 4.265-2.866 4.265zM90.86 79.13l.4.068c-.333 2.799-3.799 8.264-10.597 8.264-7.865 0-13.73-5.799-13.73-15.596 0-9.33 4.999-15.13 11.33-16.196v.6c-3.466 1.133-7.398 5.399-7.398 13.93h18.062c0-8.665-3.665-12.73-6.531-13.93v-.6c5.132 1 9.864 5.865 9.864 15.196H70.865c0 11.397 4.666 15.263 10.664 15.263 4.466 0 8.531-3.532 9.331-6.998zm32.592 7.199v.533h-8.665v-.533c2.533-.733 2.666-.333 2.666-3.732v-15.73c0-5.865-2.799-9.597-8.264-9.597-2 0-3.666.866-4.933 1.933l-.666-.6c1.866-1.866 4.466-3.133 7.131-3.133 5.599 0 9.998 3.133 9.998 11.131v15.996c0 3.665.4 3.132 2.733 3.732zm-19.462-.067v.6h-8.73v-.6c2.532-.733 2.665-.266 2.665-3.665V60.469c0-2.333-.533-3.332-3.333-3.332v-.533l6.665-1.133v27.126c0 3.665.334 3.065 2.733 3.665zm50.121-.266v.533l-5.332.866c-1.467.334-1.4-.733-1.4-.733V61.335c0-4.065 0-4.132-3.132-4.132v-.533l6.464-1.2v26.393c0 3.2.6 3.8 3.4 4.133zm-9.065-1.2c-1.533 1.466-3.599 2.666-6.398 2.666-4.332 0-10.597-1.333-10.597-9.93v-15.73c0-4.599 0-4.599-3.733-4.599v-.533l6.932-1.2v21.861c0 6.332 4.265 8.398 8.131 8.398 2.133 0 3.932-.466 5.199-1.466l.466.533zm35.524-5.666l.4.068c-.333 2.799-3.799 8.264-10.597 8.264-7.865 0-13.73-5.799-13.73-15.596 0-9.33 4.999-15.13 11.33-16.196v.6c-3.466 1.133-7.398 5.399-7.398 13.93h18.062c0-8.665-3.665-12.73-6.531-13.93v-.6c5.131 1 9.864 5.865 9.864 15.196h-21.395c0 11.397 4.666 15.263 10.664 15.263 4.466 0 8.531-3.532 9.331-6.998zM5.569 58.183l-2.654 6.244H1.414l2.684-6.08H.734v-1.244H5.57v1.08zm.709.339v-1.358h2.613v7.262H7.37v-5.904H6.28z"/><path fill-rule="evenodd" clip-rule="evenodd" d="M9.673 58.522v-1.358h2.613v7.262h-1.522v-5.904H9.673z"/></g></svg>